<svg width="28" height="20" viewBox="0 0 28 20" fill="none" xmlns="http://www.w3.org/2000/svg">
<rect width="28" height="20" rx="3" fill="#01326F"/>
<path d="M16.3314 5.2832H11.082V14.7171H16.3314V5.2832Z" fill="#FF5F00"/>
<path d="M11.4149 10.0011C11.414 9.09244 11.6198 8.19544 12.0168 7.37807C12.4137 6.5607 12.9915 5.84437 13.7063 5.28333C12.8213 4.58778 11.7584 4.15526 10.6392 4.0352C9.51994 3.91514 8.38951 4.11239 7.37708 4.6044C6.36465 5.09641 5.51106 5.86333 4.91388 6.81751C4.31669 7.77169 4 8.87463 4 10.0003C4 11.1259 4.31669 12.2289 4.91388 13.1831C5.51106 14.1372 6.36465 14.9042 7.37708 15.3962C8.38951 15.8882 9.51994 16.0854 10.6392 15.9654C11.7584 15.8453 12.8213 15.4128 13.7063 14.7172C12.9917 14.1564 12.4141 13.4403 12.0171 12.6233C11.6201 11.8062 11.4142 10.9095 11.4149 10.0011Z" fill="#EB001B"/>
<path d="M23.4133 10.0008C23.4132 11.1266 23.0965 12.2296 22.4992 13.1838C21.9019 14.138 21.0482 14.9049 20.0356 15.3969C19.0231 15.8888 17.8925 16.0859 16.7732 15.9657C15.6539 15.8455 14.591 15.4127 13.7061 14.717C14.4204 14.1556 14.9978 13.4393 15.3949 12.6222C15.792 11.8051 15.9983 10.9085 15.9983 10C15.9983 9.09151 15.792 8.19489 15.3949 7.37778C14.9978 6.56067 14.4204 5.84441 13.7061 5.28305C14.591 4.58728 15.6539 4.15455 16.7732 4.03432C17.8925 3.91409 19.0231 4.11121 20.0356 4.60314C21.0482 5.09508 21.9019 5.86199 22.4992 6.8162C23.0965 7.77042 23.4132 8.87343 23.4133 9.99917V10.0008Z" fill="#F79E1B"/>
</svg>
