<svg width="48" height="20" viewBox="0 0 48 20" fill="none" xmlns="http://www.w3.org/2000/svg">
<path d="M15.7754 8.65658C15.776 8.14647 15.7326 7.63725 15.6456 7.13452H8.53711V10.0175H12.6085C12.5252 10.4779 12.3489 10.9169 12.0901 11.3078C11.8314 11.6988 11.4956 12.0336 11.1031 12.2923V14.1636H13.5329C14.9557 12.8609 15.7754 10.9345 15.7754 8.65658Z" fill="#4285F4"/>
<path d="M8.53745 15.9718C10.5716 15.9718 12.2843 15.3085 13.5333 14.1649L11.1034 12.2935C10.4271 12.7489 9.55608 13.0088 8.53745 13.0088C6.57137 13.0088 4.90261 11.6926 4.30587 9.91895H1.80273V11.8475C2.43011 13.0873 3.39212 14.1295 4.58136 14.8578C5.7706 15.5861 7.14027 15.9718 8.53745 15.9718Z" fill="#34A853"/>
<path d="M4.30577 9.91861C3.9903 8.9892 3.9903 7.98272 4.30577 7.05332V5.12476H1.80263C1.27486 6.16769 1 7.31874 1 8.48596C1 9.65319 1.27486 10.8042 1.80263 11.8472L4.30577 9.91861Z" fill="#FBBC04"/>
<path d="M8.53745 3.96351C9.61239 3.94607 10.6511 4.34941 11.429 5.08634L13.5804 2.94985C12.2162 1.67739 10.4089 0.978784 8.53745 1.00049C7.14027 1.00055 5.7706 1.38626 4.58136 2.11455C3.39212 2.84283 2.43011 3.88504 1.80273 5.12481L4.30587 7.05337C4.90261 5.27971 6.57137 3.96351 8.53745 3.96351Z" fill="#EA4335"/>
<path d="M22.5869 9.79369V15.0699H20.9014V2.03994H25.3716C25.9052 2.02887 26.4357 2.12285 26.9326 2.31646C27.4294 2.51007 27.8827 2.79947 28.2663 3.16796C28.6538 3.51409 28.9622 3.93857 29.1707 4.41288C29.3793 4.88719 29.4832 5.40035 29.4755 5.91785C29.4866 6.43813 29.3843 6.95463 29.1756 7.43197C28.9669 7.9093 28.6567 8.33618 28.2663 8.68334C27.4846 9.42357 26.5197 9.79334 25.3716 9.79265H22.5869V9.79369ZM22.5869 3.64413V8.19262H25.4135C25.7234 8.20174 26.0318 8.14653 26.3189 8.03053C26.6061 7.91452 26.8657 7.74027 27.0812 7.51892C27.2956 7.31197 27.466 7.06443 27.5823 6.79094C27.6987 6.51746 27.7586 6.22358 27.7586 5.92669C27.7586 5.6298 27.6987 5.33592 27.5823 5.06244C27.466 4.78895 27.2956 4.54141 27.0812 4.33446C26.8684 4.10844 26.6097 3.92992 26.3222 3.81073C26.0347 3.69154 25.7249 3.63439 25.4135 3.64309H22.5869V3.64413Z" fill="#5F6368"/>
<path d="M33.3596 5.86401C34.6054 5.86401 35.5888 6.19462 36.3097 6.85585C37.0307 7.51707 37.3908 8.42365 37.3901 9.57558V15.0702H35.7779V13.833H35.7046C35.0067 14.8518 34.0785 15.3613 32.9199 15.3613C31.9309 15.3613 31.1035 15.0702 30.4377 14.488C30.1181 14.2207 29.8627 13.8861 29.6899 13.5084C29.5171 13.1307 29.4314 12.7195 29.4389 12.3047C29.4389 11.3822 29.79 10.6485 30.4921 10.1037C31.1942 9.55895 32.1316 9.28587 33.3041 9.28448C34.3049 9.28448 35.1292 9.46642 35.7769 9.8303V9.44771C35.7788 9.16494 35.7173 8.88529 35.5969 8.62905C35.4765 8.3728 35.3001 8.14638 35.0807 7.9662C34.635 7.56684 34.0541 7.34894 33.4538 7.35592C32.5123 7.35592 31.7672 7.7503 31.2187 8.53905L29.7342 7.61064C30.5507 6.44622 31.7592 5.86401 33.3596 5.86401ZM31.1789 12.3411C31.1778 12.5541 31.2279 12.7643 31.3251 12.9542C31.4224 13.1441 31.5639 13.3081 31.7379 13.4327C32.1107 13.7239 32.5734 13.8782 33.0476 13.8694C33.7589 13.8682 34.4406 13.587 34.9435 13.0875C35.5019 12.5656 35.7811 11.9533 35.7811 11.2505C35.2555 10.8346 34.5227 10.6267 33.5826 10.6267C32.8979 10.6267 32.327 10.7906 31.8698 11.1184C31.4082 11.4511 31.1789 11.8555 31.1789 12.3411Z" fill="#5F6368"/>
<path d="M46.6444 6.15503L41.0162 19H39.2763L41.3649 14.5055L37.6641 6.15503H39.4961L42.171 12.5593H42.2076L44.8092 6.15503H46.6444Z" fill="#5F6368"/>
</svg>
