<svg width="48" height="20" viewBox="0 0 48 20" fill="none" xmlns="http://www.w3.org/2000/svg">
<path fill-rule="evenodd" clip-rule="evenodd" d="M25.4766 3.43925L22.4532 4.08811V1.63685L25.4766 1V3.43925ZM31.7641 4.79703C30.5837 4.79703 29.8248 5.34977 29.4032 5.73428L29.2466 4.98929H26.5966V19L29.608 18.3631L29.62 14.9626C30.0536 15.275 30.6921 15.7196 31.7521 15.7196C33.9082 15.7196 35.8716 13.9893 35.8716 10.1802C35.8596 6.69556 33.8721 4.79703 31.7641 4.79703ZM31.0413 13.076C30.3307 13.076 29.9091 12.8236 29.62 12.5112L29.6079 8.05329C29.9211 7.70482 30.3547 7.4645 31.0413 7.4645C32.1375 7.4645 32.8963 8.69014 32.8963 10.2642C32.8963 11.8744 32.1495 13.076 31.0413 13.076ZM45.3636 10.3004C45.3636 7.22427 43.8699 4.79703 41.0151 4.79703C38.1483 4.79703 36.4138 7.22427 36.4138 10.2763C36.4138 13.8932 38.4615 15.7196 41.4006 15.7196C42.834 15.7196 43.9181 15.3952 44.7372 14.9385V12.5353C43.9181 12.9439 42.9786 13.1962 41.7861 13.1962C40.6176 13.1962 39.5817 12.7877 39.4492 11.3698H45.3395C45.3395 11.3036 45.3438 11.1534 45.3488 10.9803L45.3488 10.9798V10.9796L45.3488 10.9793L45.3488 10.9789L45.3488 10.9786L45.3488 10.9784C45.3556 10.7432 45.3636 10.4662 45.3636 10.3004ZM39.413 9.15879C39.413 7.80098 40.2442 7.23623 41.003 7.23623C41.7378 7.23623 42.5208 7.80098 42.5208 9.15879H39.413ZM22.4529 5.00138H25.4764V15.5154H22.4529V5.00138ZM19.0203 5.0014L19.213 5.89059C19.9237 4.59286 21.333 4.85721 21.7185 5.0014V7.76508C21.3451 7.63291 20.1405 7.46468 19.4298 8.38992V15.5154H16.4185V5.0014H19.0203ZM13.1901 2.39381L10.251 3.01865L10.239 12.6435C10.239 14.4218 11.576 15.7316 13.3587 15.7316C14.3465 15.7316 15.0692 15.5513 15.4667 15.3351V12.8958C15.0812 13.052 13.1781 13.6048 13.1781 11.8264V7.5607H15.4667V5.00129H13.1781L13.1901 2.39381ZM6.07138 7.40451C5.43296 7.40451 5.04751 7.58475 5.04751 8.05337C5.04751 8.56504 5.71088 8.79011 6.53387 9.06935C7.87554 9.52456 9.64142 10.1237 9.64889 12.3431C9.64889 14.494 7.92638 15.7316 5.42092 15.7316C4.38501 15.7316 3.25273 15.5273 2.1325 15.0467V12.1869C3.14432 12.7396 4.42114 13.1482 5.42092 13.1482C6.09547 13.1482 6.57729 12.9679 6.57729 12.4152C6.57729 11.8484 5.85817 11.5894 4.99001 11.2766C3.66786 10.8003 2 10.1995 2 8.19757C2 6.07073 3.62614 4.79703 6.07138 4.79703C7.07115 4.79703 8.05888 4.95324 9.05866 5.34977V8.17353C8.1432 7.68088 6.98683 7.40451 6.07138 7.40451Z" fill="#6461FC"/>
</svg>
