<svg width="28" height="20" viewBox="0 0 28 20" fill="none" xmlns="http://www.w3.org/2000/svg">
<rect width="28" height="20" rx="3" fill="url(#paint0_linear_8785_21981)"/>
<path d="M14.1093 8.91817C14.0987 9.75395 14.8541 10.2204 15.4232 10.4977C16.0079 10.7822 16.2043 10.9647 16.2021 11.2191C16.1976 11.6085 15.7356 11.7804 15.3032 11.7871C14.5489 11.7988 14.1104 11.5834 13.7617 11.4205L13.49 12.692C13.8398 12.8533 14.4875 12.9939 15.1593 13C16.736 13 17.7676 12.2217 17.7732 11.0149C17.7793 9.48336 15.6547 9.39855 15.6692 8.71397C15.6743 8.50642 15.8723 8.28492 16.3064 8.22857C16.5212 8.20011 17.1143 8.17835 17.7866 8.488L18.0505 7.25776C17.689 7.12609 17.2242 7 16.6456 7C15.1615 7 14.1176 7.78892 14.1093 8.91817ZM20.5863 7.10601C20.2984 7.10601 20.0557 7.27394 19.9475 7.53171L17.6951 12.9096H19.2707L19.5843 12.0431H21.5097L21.6916 12.9096H23.0803L21.8684 7.10601H20.5863ZM20.8067 8.6738L21.2614 10.8531H20.0161L20.8067 8.6738ZM12.1989 7.10601L10.957 12.9096H12.4583L13.6997 7.10601H12.1989ZM9.97778 7.10601L8.41501 11.0562L7.78287 7.69741C7.70867 7.32248 7.41575 7.10601 7.09048 7.10601H4.53571L4.5 7.2745C5.02446 7.38832 5.62033 7.57188 5.98131 7.76827C6.20225 7.88823 6.2653 7.99312 6.33783 8.27822L7.53515 12.9096H9.12191L11.5545 7.10601H9.97778Z" fill="white"/>
<defs>
<linearGradient id="paint0_linear_8785_21981" x1="12.5781" y1="20" x2="19.0418" y2="0.661558" gradientUnits="userSpaceOnUse">
<stop stop-color="#222357"/>
<stop offset="1" stop-color="#254AA5"/>
</linearGradient>
</defs>
</svg>
