<svg width="48" height="20" viewBox="0 0 48 20" fill="none" xmlns="http://www.w3.org/2000/svg">
<path d="M30.4009 5.02661C30.4009 5.13356 30.4009 5.24052 30.2939 5.34747C29.4383 9.62557 26.6576 11.0159 23.0212 11.0159H21.203C20.7752 11.0159 20.3474 11.3368 20.3474 11.7646L19.3848 17.7539L19.1709 19.4652C19.1709 19.786 19.3848 19.9999 19.5987 19.9999H22.9142C23.342 19.9999 23.6629 19.6791 23.6629 19.3582V19.1443L24.3046 15.294V15.0801C24.4116 14.6523 24.7324 14.4384 25.0533 14.4384H25.588C28.7966 14.4384 31.2565 13.155 31.8982 9.41166C32.2191 7.80737 32.0052 6.52395 31.2565 5.66833C31.0426 5.45442 30.7218 5.24052 30.4009 5.02661Z" fill="#2199D6"/>
<path d="M29.5455 4.70587C29.4386 4.70587 29.3317 4.59892 29.1177 4.59892C29.0108 4.59892 28.7969 4.49196 28.6899 4.49196C28.1552 4.38501 27.6204 4.38501 27.0856 4.38501H22.1658C22.0589 4.38501 21.9519 4.38501 21.845 4.49196C21.6311 4.59891 21.4172 4.81282 21.4172 5.02672L20.3477 11.6578V11.8717C20.4546 11.4439 20.7755 11.123 21.2033 11.123H23.0215C26.6578 11.123 29.4386 9.62568 30.2942 5.45453C30.2942 5.34758 30.2942 5.24063 30.4012 5.13368C30.1873 5.02672 29.9734 4.91977 29.7595 4.81282C29.6525 4.70587 29.5455 4.70587 29.5455 4.70587Z" fill="#252C5E"/>
<path d="M21.4171 5.02676C21.4171 4.81285 21.631 4.59895 21.8449 4.492C21.9519 4.492 22.0589 4.38504 22.1658 4.38504H27.0856C27.6204 4.38504 28.2621 4.38504 28.6899 4.492C28.7968 4.492 29.0108 4.492 29.1177 4.59895C29.2247 4.59895 29.3316 4.7059 29.5455 4.7059C29.6525 4.7059 29.6525 4.7059 29.7594 4.81286C29.9733 4.91981 30.1872 5.02676 30.4011 5.13371C30.615 3.52943 30.4011 2.4599 29.5455 1.49733C28.5829 0.427807 26.8717 0 24.7327 0H18.4225C17.9947 0 17.5668 0.320854 17.5668 0.748663L15 17.2193C15 17.5402 15.2139 17.861 15.5348 17.861H19.385L20.3476 11.6578L21.4171 5.02676Z" fill="#263577"/>
</svg>
