<svg width="40" height="40" viewBox="0 0 40 40" fill="none" xmlns="http://www.w3.org/2000/svg">
<path opacity="0.2" d="M13.75 25C18.2373 25 21.875 21.3623 21.875 16.875C21.875 12.3877 18.2373 8.75 13.75 8.75C9.26269 8.75 5.625 12.3877 5.625 16.875C5.625 21.3623 9.26269 25 13.75 25Z" fill="#0E68E7"/>
<path d="M13.75 25C18.2373 25 21.875 21.3623 21.875 16.875C21.875 12.3877 18.2373 8.75 13.75 8.75C9.26269 8.75 5.625 12.3877 5.625 16.875C5.625 21.3623 9.26269 25 13.75 25Z" stroke="#0E68E7" stroke-width="2" stroke-miterlimit="10"/>
<path d="M24.2812 9.05256C25.3988 8.7377 26.5708 8.66597 27.7184 8.84221C28.866 9.01845 29.9625 9.43856 30.934 10.0743C31.9056 10.7099 32.7296 11.5465 33.3507 12.5274C33.9717 13.5084 34.3753 14.6111 34.5343 15.7612C34.6933 16.9113 34.604 18.0821 34.2724 19.1948C33.9408 20.3075 33.3746 21.3362 32.612 22.2116C31.8493 23.0871 30.9079 23.7889 29.8512 24.2699C28.7944 24.7508 27.6469 24.9998 26.4859 24.9999" stroke="#0E68E7" stroke-width="2" stroke-linecap="round" stroke-linejoin="round"/>
<path d="M2.5 30.8432C3.76896 29.0382 5.45358 27.565 7.41164 26.548C9.3697 25.531 11.5437 25.0001 13.7501 25C15.9566 24.9999 18.1306 25.5307 20.0887 26.5476C22.0469 27.5644 23.7316 29.0375 25.0007 30.8424" stroke="#0E68E7" stroke-width="2" stroke-linecap="round" stroke-linejoin="round"/>
<path d="M26.4883 25C28.6949 24.9984 30.8694 25.5285 32.8277 26.5455C34.786 27.5625 36.4704 29.0364 37.7383 30.8424" stroke="#0E68E7" stroke-width="2" stroke-linecap="round" stroke-linejoin="round"/>
</svg>
